<?xml version="1.0" encoding="utf-8"?>
<!-- Generator: Adobe Illustrator 25.0.1, SVG Export Plug-In . SVG Version: 6.00 Build 0)  -->
<svg version="1.1" id="Layer_1" xmlns="http://www.w3.org/2000/svg" xmlns:xlink="http://www.w3.org/1999/xlink" x="0px" y="0px"
	 viewBox="0 0 368.2 518.37" style="enable-background:new 0 0 368.2 518.37;" xml:space="preserve">
<style type="text/css">
	.st0{fill:#F39400;}
	.st1{fill:#AD1917;}
	.st2{fill:#010202;}
</style>
<g>
	<g>
	</g>
</g>
<g>
	<g>
	</g>
</g>
<path class="st0" d="M93.59,273.16c5.96,25.23,17.9,47.23,35.6,66.22c-26.74-13.77-43.78-35.47-53.12-63.77
	c-10.98-33.24-3.1-70.77,7.14-85.86c1.27,15.12,3.03,29.87,7.16,44.17c9.88,34.27,30.23,61.38,57.94,83.24
	c11.18,8.82,24.44,11.36,38.76,11.7c-2.9-8.67-7.82-15.6-13.7-21.92c-9.42-10.12-20.68-17.97-32.98-23.89
	c-24.46-11.79-35.28-32.37-39.19-57.77c-2.07-13.42-2.43-26.98-2.73-40.56c4.13,16.56,9.47,32.63,17.52,47.7
	c10.76,20.14,25.48,36.16,46.61,46c12.53,5.83,24.28,13.13,33.98,23.26c6.35,6.63,10.48,14.34,11.87,23.49
	c0.25,1.65-0.6,4.49,2.82,3.75c2.77-0.6,6.43,0.3,6.82-4.4c1.13-13.7-2.99-24.92-14.77-32.79c-9.89-6.6-20.89-11.07-31.44-16.41
	c-22.12-11.19-38.92-27.31-47.99-50.76c-0.52-1.36-0.94-2.76-1.33-4.16c-0.12-0.43,0.02-0.93,0.06-1.81
	c5.39,5.98,10.57,11.68,15.69,17.42c12.77,14.3,28.89,22.23,47.69,24.99c4.7,0.69,9.99,1.28,12.65-3.64
	c2.75-5.09-1.08-8.84-4.37-12.28c-7.22-7.56-16.46-11.41-26.35-13.83c-34.95-8.54-54.05-32.34-62.17-65.8
	c-4.27-17.62,0.61-34.03,11.86-49.82c0,3.2,0.07,5.31-0.01,7.42c-0.56,15.06,0.98,29.76,6.55,43.95
	c7.25,18.48,21.89,29.38,38.7,37.95c7.78,3.97,15.93,7.22,23.95,10.72c11.42,4.98,21.85,11.41,30.64,20.33
	c0.66,0.67,1.2,1.58,2.6,1.58c2.21-4.68,1.62-9.28-0.61-13.84c-3.37-6.91-8.87-11.97-14.73-16.64
	c-8.92-7.11-18.84-12.65-28.97-17.82c-29.31-14.95-44.02-41.15-41.85-73.95c0.63-9.44,1.93-18.69,5.16-27.62
	c0.37-1.02,0.43-2.2,1.92-2.98c-0.02,9.74,1.3,19.08,3.7,28.3c5.19,19.89,16.1,35.5,33.71,46.42c10.63,6.59,21.72,12.33,32.6,18.46
	c22.72,12.8,39.35,30.53,46.3,56.26c0.17,0.62,0.38,1.27,1.59,1.27c4.03-19.5-2.04-35.92-15.29-50.16
	c-7.48-8.03-16.87-13.7-25.56-20.23c-17.06-12.82-33.67-26.12-46.21-43.67c-10.92-15.27-17.29-31.9-14.11-51.09
	c2.46-14.85,9.76-27.34,19.07-38.84c1.31-1.62,2.71-3.18,4.26-5c1.49,1.87,0.88,3.7,0.9,5.33c0.26,19.71,1.96,39.26,8.26,58.06
	c7.72,23.07,22.28,41.61,39.99,57.84c11.02,10.1,22.36,19.85,33.3,30.03c9.11,8.47,16.92,18.02,20.88,30.09
	c7.42,22.61-0.06,46.89-19.4,63.58c-8.42,7.27-17.73,13.11-27.92,17.54c-2.22,0.97-3.67,1.93-3.58,4.89
	c0.28,9.25-0.85,18.43-1.78,27.96c32.04-19.4,60.06-42.02,66.02-82.23c3.72,31.3-6.7,65.02-36.63,88.35
	c-10.57,8.24-22.05,14.87-34.62,19.52c-3.06,1.13-5.12,2.81-6.7,5.77c-4.3,8.05-10.09,14.93-18.01,20.12
	c2.91-6.54,5.82-13.07,8.85-19.87c-3.74-0.53-5.81,0.49-7.39,3.65c-3.1,6.17-6.63,12.14-12.32,16.63c0-5.78-0.1-11.2,0.05-16.61
	c0.06-2.31-0.44-3.48-3-3.94c-27.33-4.89-48.69-19.46-66.16-40.57C111.43,300.09,101.27,287.53,93.59,273.16z"/>
<path class="st1" d="M152.73,298.11c4-0.08,7.1,2.83,7.23,6.78c0.14,4.12-3.02,7.41-7.11,7.4c-3.96-0.01-7.05-3.09-7.06-7.04
	C145.77,301.23,148.74,298.18,152.73,298.11z"/>
<path class="st2" d="M332.22,426.03c-1.47-0.73-2.89-1.62-4.26-2.67c0.36-0.68,0.81-1.46,1.35-2.32s1.05-1.54,1.54-2.03
	c0.81-0.75,1.39-1.12,1.71-1.12c0.95,0,1.74,0.91,2.37,2.71s1.15,4.18,1.54,7.12C335.11,427.33,333.69,426.76,332.22,426.03z
	 M341.61,423.95c-0.49-1.96-0.95-3.63-1.37-5.01c-0.42-1.39-0.85-2.54-1.27-3.45c-1.44-3.06-3.23-4.6-5.38-4.6
	c-0.85,0-1.77,0.36-2.76,1.08c-1,0.72-2.02,1.72-3.08,3.01c-1.06,1.29-2.13,2.85-3.2,4.7c-1.08,1.84-2.1,3.89-3.08,6.14h-3.62v5.33
	h3.18c1.27,0,2.18-0.1,2.74-0.29c0.72-0.29,1.35-0.93,1.91-1.91c2.38,1.21,4.41,2.22,6.09,3.03c1.68,0.82,3.01,1.42,3.99,1.81
	c0.49,0.23,0.95,0.34,1.37,0.34c1.17,0,2.41-1.34,3.72-4.01c0.68-1.3,1.06-2.38,1.12-3.23C342.02,426.27,341.9,425.29,341.61,423.95
	z M301.73,441.63c0.73,0.7,1.62,1.05,2.67,1.05c1.01,0,1.87-0.35,2.57-1.05c0.7-0.7,1.05-1.56,1.05-2.57c0-1.04-0.35-1.93-1.05-2.67
	c-0.7-0.73-1.56-1.1-2.57-1.1c-1.04,0-1.93,0.37-2.67,1.1c-0.73,0.73-1.1,1.62-1.1,2.67C300.63,440.07,300.99,440.93,301.73,441.63z
	 M319.31,425.81h-1.96c-0.72,0-1.39-0.18-2-0.54c-0.62-0.36-1.16-0.93-1.61-1.71c-1.37-2.38-2.58-4.46-3.64-6.24
	c-1.06-1.78-2.05-3.24-2.96-4.38c-0.91-1.14-1.83-2-2.74-2.57c-0.91-0.57-1.91-0.86-2.98-0.86c-0.98,0-1.93,0.16-2.86,0.46
	c-0.93,0.31-1.82,0.73-2.67,1.25c-0.85,0.52-1.64,1.12-2.37,1.81c-0.73,0.68-1.36,1.39-1.88,2.1l3.67,3.37
	c0.85-1.04,1.62-1.81,2.32-2.3c0.7-0.49,1.48-0.73,2.32-0.73c0.62,0,1.2,0.18,1.74,0.54c0.54,0.36,1.11,0.94,1.71,1.74
	c0.6,0.8,1.26,1.86,1.98,3.18c0.72,1.32,1.55,2.94,2.49,4.87h-22.11l0.05,5.33h33.5V425.81z M272.36,426.03
	c-1.47-0.73-2.89-1.62-4.26-2.67c0.36-0.68,0.81-1.46,1.35-2.32s1.05-1.54,1.54-2.03c0.81-0.75,1.39-1.12,1.71-1.12
	c0.95,0,1.74,0.91,2.37,2.71s1.15,4.18,1.54,7.12C275.24,427.33,273.82,426.76,272.36,426.03z M280.43,431.14h6.65v-5.33h-5.04
	c-0.07-0.52-0.16-1.14-0.29-1.86c-0.49-1.96-0.95-3.63-1.37-5.01c-0.42-1.39-0.85-2.54-1.27-3.45c-1.44-3.06-3.23-4.6-5.38-4.6
	c-0.85,0-1.77,0.36-2.76,1.08c-1,0.72-2.02,1.72-3.08,3.01c-1.06,1.29-2.13,2.85-3.2,4.7c-1.08,1.84-2.1,3.89-3.08,6.14h-3.62v5.33
	h3.18c1.27,0,2.18-0.1,2.74-0.29c0.72-0.29,1.35-0.93,1.91-1.91c2.38,1.21,4.41,2.22,6.09,3.03c1.68,0.82,3.01,1.42,3.99,1.81
	c0.49,0.23,0.95,0.34,1.37,0.34C278.26,434.12,279.32,433.13,280.43,431.14z M243.69,425.81c-1.24,0-2.14-0.25-2.69-0.73
	c-0.55-0.49-0.83-1.21-0.83-2.15c0.03-0.88,0.27-1.68,0.71-2.4c0.44-0.72,1.03-1.34,1.79-1.88c0.75-0.54,1.65-1,2.69-1.39
	c1.04-0.39,2.18-0.72,3.42-0.98c0.26,1.6,0.43,3.2,0.51,4.79c0.08,1.6,0.14,3.18,0.17,4.74H243.69z M246.61,441.75
	c1.42-0.39,2.63-0.91,3.64-1.57c1.01-0.65,1.83-1.39,2.47-2.2c0.64-0.82,1.14-1.63,1.52-2.45c0.37-0.82,0.64-1.61,0.81-2.4
	c0.16-0.78,0.26-1.45,0.29-2h4.26v-5.33h-4.26c-0.07-2.9-0.2-5.62-0.39-8.17c-0.2-2.54-0.49-4.89-0.88-7.04
	c-3.39,0.33-6.33,0.9-8.83,1.71c-2.49,0.82-4.57,1.78-6.21,2.89c-1.65,1.11-2.87,2.32-3.67,3.62c-0.8,1.3-1.2,2.62-1.2,3.96
	c0,2.77,0.7,4.86,2.1,6.26c1.4,1.4,3.77,2.1,7.09,2.1h6.11c-0.23,1.89-0.82,3.35-1.79,4.38c-0.96,1.03-1.98,1.79-3.06,2.27
	c-1.27,0.59-2.67,0.93-4.21,1.03l1.12,3.52C243.5,442.34,245.19,442.15,246.61,441.75z M202.81,431.14h28.03v-5.33h-13.11
	c-0.55-0.59-1-1.39-1.34-2.42s-0.51-2.42-0.51-4.18c0-0.82,0.13-1.48,0.39-2.01c0.26-0.52,0.63-0.93,1.1-1.22
	c0.47-0.29,1.02-0.49,1.64-0.59c0.62-0.1,1.29-0.15,2.01-0.15c0.88,0,1.79,0.04,2.71,0.12c0.93,0.08,1.83,0.19,2.69,0.32
	c0.86,0.13,1.66,0.28,2.4,0.44c0.73,0.16,1.35,0.31,1.83,0.44v-5.48c-1.57-0.29-3.21-0.55-4.94-0.78c-1.73-0.23-3.28-0.31-4.65-0.24
	c-3.75,0.1-6.69,0.92-8.83,2.47c-2.14,1.55-3.2,3.64-3.2,6.29c0,1.37,0.11,2.67,0.32,3.89c0.21,1.22,0.64,2.26,1.3,3.11h-7.83
	V431.14z M191.09,405.98c0.73,0.7,1.62,1.05,2.67,1.05c1.01,0,1.87-0.35,2.57-1.05c0.7-0.7,1.05-1.56,1.05-2.57
	c0-1.04-0.35-1.93-1.05-2.67c-0.7-0.73-1.56-1.1-2.57-1.1c-1.04,0-1.93,0.37-2.67,1.1c-0.73,0.73-1.1,1.62-1.1,2.67
	C189.99,404.42,190.36,405.28,191.09,405.98z M181.41,405.98c0.73,0.7,1.62,1.05,2.67,1.05c1.01,0,1.87-0.35,2.57-1.05
	c0.7-0.7,1.05-1.56,1.05-2.57c0-1.04-0.35-1.93-1.05-2.67c-0.7-0.73-1.56-1.1-2.57-1.1c-1.04,0-1.93,0.37-2.67,1.1
	s-1.1,1.62-1.1,2.67C180.31,404.42,180.68,405.28,181.41,405.98z M182.88,419.79c0.44-0.52,1.05-1.01,1.83-1.47
	c0.78-0.46,1.74-0.88,2.86-1.27s2.37-0.72,3.74-0.98v9.73h-5.62c-1.24,0-2.14-0.25-2.69-0.73c-0.55-0.49-0.83-1.21-0.83-2.15v-1.57
	C182.2,420.84,182.44,420.32,182.88,419.79z M178.3,428.77c1.37,1.58,3.72,2.37,7.04,2.37c1.37,0,2.45-0.16,3.25-0.49
	c0.8-0.33,1.41-0.68,1.83-1.08c0.49-0.46,0.81-0.99,0.98-1.61c0.1,0.42,0.23,0.83,0.39,1.22c0.16,0.36,0.37,0.72,0.61,1.08
	c0.24,0.36,0.55,0.65,0.9,0.88h10.96v-5.33h-7.04V410.5c-3.69,0.26-6.86,0.77-9.51,1.52c-2.66,0.75-4.83,1.65-6.53,2.69
	c-1.7,1.04-2.94,2.22-3.74,3.52c-0.8,1.3-1.2,2.64-1.2,4.01C176.25,425.01,176.93,427.19,178.3,428.77z M150.47,399.74v31.4h6.21
	v-33.16L150.47,399.74z M132.04,431.14h12.72v-33.16l-6.21,1.76v26.07h-6.51V431.14z M87.82,431.14h45.68v-5.33h-6.95v-16.09
	l-6.21,1.76v14.33h-6.06v-16.09l-6.21,1.76v14.33h-6.21v-16.09l-6.21,1.76v14.33h-7.83V431.14z M76.43,411.67
	c0.81,3.03,1.3,6.11,1.44,9.22c0.15,3.11,0.22,6.16,0.22,9.12c0,1.08-0.13,2.03-0.39,2.86c-0.26,0.83-0.6,1.55-1.03,2.15
	c-0.42,0.6-0.9,1.12-1.44,1.54s-1.08,0.78-1.64,1.08c-1.3,0.65-2.79,1.04-4.45,1.17l1.12,3.52c1.96,0,3.64-0.2,5.06-0.59
	s2.62-0.91,3.62-1.57c0.99-0.65,1.8-1.39,2.42-2.2c0.62-0.82,1.12-1.63,1.49-2.45c0.37-0.82,0.64-1.61,0.78-2.4
	c0.15-0.78,0.24-1.45,0.27-2h5.38v-5.33h-5.38c-0.07-2.38-0.22-4.94-0.46-7.68c-0.24-2.74-0.63-5.53-1.15-8.36L76.43,411.67z
	 M61.21,399.74v31.4h6.21v-33.16L61.21,399.74z M44.56,434.78c0.73,0.7,1.62,1.05,2.67,1.05c1.01,0,1.87-0.35,2.57-1.05
	c0.7-0.7,1.05-1.56,1.05-2.57c0-1.04-0.35-1.93-1.05-2.67c-0.7-0.73-1.56-1.1-2.57-1.1c-1.04,0-1.93,0.37-2.67,1.1
	c-0.73,0.73-1.1,1.62-1.1,2.67C43.46,433.23,43.83,434.08,44.56,434.78z M52.22,442.1c-1.04,0.13-2.05,0.23-3.03,0.29
	s-1.92,0.1-2.84,0.1c-1.99,0-3.8-0.15-5.43-0.44c-1.63-0.29-3.02-0.74-4.18-1.35c-1.16-0.6-2.05-1.37-2.69-2.3
	c-0.64-0.93-0.95-2.03-0.95-3.3c0-1.14,0.29-2.31,0.86-3.5c0.57-1.19,1.37-2.34,2.4-3.45c1.03-1.11,2.26-2.14,3.69-3.08
	c1.43-0.95,3.01-1.76,4.72-2.45c1.71-0.68,3.53-1.18,5.45-1.49c1.92-0.31,3.91-0.38,5.97-0.22l0.1-6.55
	c-1.56,0.03-3.12-0.11-4.67-0.42c-1.55-0.31-3.3-0.79-5.26-1.44c-1.96-0.65-3.65-1.28-5.09-1.88c-1.44-0.6-2.62-0.91-3.57-0.91
	c-0.98,0-1.95,0.16-2.91,0.46c-0.96,0.31-1.88,0.73-2.76,1.25c-0.88,0.52-1.7,1.12-2.45,1.81c-0.75,0.69-1.39,1.39-1.91,2.1
	l3.52,3.18c0.85-1.04,1.82-1.83,2.91-2.35c1.09-0.52,2.06-0.78,2.91-0.78c0.91,0,1.75,0.09,2.52,0.27c0.77,0.18,1.48,0.39,2.13,0.64
	c0.65,0.24,1.25,0.49,1.79,0.73c0.54,0.24,1.03,0.43,1.49,0.56c-2.71,0.78-5.14,1.83-7.31,3.13c-2.17,1.3-4.01,2.8-5.53,4.48
	c-1.52,1.68-2.67,3.5-3.47,5.45c-0.8,1.96-1.2,3.96-1.2,6.02c0,2.12,0.47,3.9,1.42,5.33c0.95,1.43,2.18,2.59,3.72,3.47
	c1.53,0.88,3.28,1.51,5.23,1.88c1.96,0.37,3.94,0.56,5.97,0.56c2.71,0,5.51-0.39,8.41-1.17L52.22,442.1z"/>
<g>
	<path class="st1" d="M34.95,467.29c0.08-0.25,0.24-0.38,0.49-0.38h3.47c0.25,0,0.42,0.13,0.49,0.38l8.67,24.89
		c0.08,0.25-0.01,0.38-0.26,0.38h-3.7c-0.25,0-0.42-0.13-0.49-0.38l-1.7-4.98h-9.65l-1.7,4.98c-0.08,0.25-0.24,0.38-0.49,0.38h-3.66
		c-0.25,0-0.34-0.13-0.26-0.38L34.95,467.29z M40.57,483.24l-3.39-9.96h-0.11l-3.43,9.96H40.57z"/>
	<path class="st1" d="M51.58,467.29c0-0.25,0.13-0.38,0.38-0.38h3.7c0.25,0,0.38,0.12,0.38,0.38v21.01c0,0.15,0.08,0.23,0.23,0.23
		h11.77c0.25,0,0.38,0.13,0.38,0.38v3.27c0,0.25-0.13,0.38-0.38,0.38H51.96c-0.25,0-0.38-0.13-0.38-0.38V467.29z"/>
	<path class="st1" d="M70.29,484.03v-3.01c0-0.25,0.13-0.38,0.38-0.38h10.37c0.25,0,0.38,0.13,0.38,0.38v3.01
		c0,0.25-0.13,0.38-0.38,0.38H70.67C70.41,484.41,70.29,484.29,70.29,484.03z"/>
	<path class="st1" d="M93.82,492.97c-0.96,0-1.89-0.09-2.79-0.27s-1.77-0.42-2.58-0.72c-0.82-0.3-1.57-0.67-2.26-1.09
		c-0.69-0.42-1.29-0.87-1.79-1.35c-0.2-0.2-0.23-0.39-0.08-0.57l2.34-2.72c0.18-0.2,0.35-0.21,0.53-0.04
		c0.4,0.33,0.86,0.65,1.38,0.98c0.52,0.33,1.07,0.62,1.66,0.87c0.59,0.25,1.21,0.46,1.87,0.62c0.65,0.16,1.34,0.25,2.07,0.25
		c1.53,0,2.72-0.35,3.56-1.04s1.26-1.58,1.26-2.66c0-0.93-0.34-1.69-1.02-2.28c-0.68-0.59-1.9-1.01-3.66-1.26l-1.36-0.19
		c-2.49-0.35-4.4-1.12-5.73-2.32c-1.33-1.19-2-2.86-2-5c0-1.16,0.2-2.21,0.6-3.17c0.4-0.96,0.98-1.77,1.73-2.45s1.67-1.2,2.73-1.57
		c1.07-0.36,2.27-0.55,3.6-0.55c1.61,0,3.14,0.24,4.58,0.7c1.45,0.47,2.68,1.1,3.71,1.88c0.18,0.15,0.2,0.33,0.08,0.53l-1.81,2.8
		c-0.15,0.2-0.33,0.24-0.53,0.11c-1.06-0.68-2.07-1.18-3.05-1.51c-0.98-0.33-2.01-0.49-3.09-0.49c-1.31,0-2.31,0.32-3,0.96
		c-0.69,0.64-1.04,1.46-1.04,2.47c0,0.88,0.35,1.62,1.06,2.21c0.71,0.59,1.93,1.01,3.67,1.26l1.36,0.19c2.5,0.35,4.4,1.12,5.71,2.32
		c1.31,1.19,1.97,2.9,1.97,5.11c0,1.13-0.2,2.19-0.61,3.17c-0.41,0.98-1.02,1.82-1.84,2.53s-1.84,1.26-3.05,1.66
		C96.8,492.77,95.41,492.97,93.82,492.97z"/>
	<path class="st1" d="M107.89,467.25c0-0.25,0.13-0.38,0.38-0.38h16.07c0.25,0,0.38,0.13,0.38,0.38v3.27c0,0.25-0.13,0.38-0.38,0.38
		h-11.77c-0.15,0-0.23,0.08-0.23,0.23v6.22c0,0.15,0.08,0.23,0.23,0.23h9.92c0.25,0,0.38,0.13,0.38,0.38v3.27
		c0,0.25-0.13,0.38-0.38,0.38h-9.92c-0.15,0-0.23,0.08-0.23,0.22v6.45c0,0.15,0.08,0.23,0.23,0.23h11.77c0.25,0,0.38,0.13,0.38,0.38
		v3.27c0,0.25-0.13,0.38-0.38,0.38h-16.07c-0.25,0-0.38-0.13-0.38-0.38V467.25z"/>
	<path class="st1" d="M143.94,492.56c-0.28,0-0.47-0.13-0.57-0.38l-4.9-9.99h-4.41c-0.15,0-0.23,0.08-0.23,0.23v9.77
		c0,0.25-0.13,0.38-0.38,0.38h-3.7c-0.25,0-0.38-0.13-0.38-0.38v-24.93c0-0.25,0.13-0.38,0.38-0.38h9.92c1.18,0,2.27,0.19,3.26,0.57
		c0.99,0.38,1.85,0.9,2.58,1.57c0.73,0.67,1.3,1.47,1.72,2.42c0.42,0.94,0.62,1.98,0.62,3.12c0,1.69-0.44,3.15-1.32,4.38
		c-0.88,1.23-2.06,2.13-3.54,2.68l5.39,10.46c0.08,0.13,0.08,0.24,0.02,0.34c-0.06,0.1-0.16,0.15-0.28,0.15H143.94z M139.53,478.15
		c1.18,0,2.13-0.33,2.85-0.98c0.72-0.65,1.07-1.53,1.07-2.63c0-1.13-0.36-2.01-1.07-2.66c-0.72-0.65-1.67-0.98-2.85-0.98h-5.47
		c-0.15,0-0.23,0.08-0.23,0.23v6.79c0,0.15,0.08,0.23,0.23,0.23H139.53z"/>
	<path class="st1" d="M167.29,492.56c-0.28,0-0.47-0.13-0.57-0.38l-4.9-9.99h-4.41c-0.15,0-0.23,0.08-0.23,0.23v9.77
		c0,0.25-0.13,0.38-0.38,0.38h-3.7c-0.25,0-0.38-0.13-0.38-0.38v-24.93c0-0.25,0.13-0.38,0.38-0.38h9.92c1.18,0,2.27,0.19,3.26,0.57
		c0.99,0.38,1.85,0.9,2.58,1.57c0.73,0.67,1.3,1.47,1.72,2.42c0.42,0.94,0.62,1.98,0.62,3.12c0,1.69-0.44,3.15-1.32,4.38
		c-0.88,1.23-2.06,2.13-3.54,2.68l5.39,10.46c0.08,0.13,0.08,0.24,0.02,0.34c-0.06,0.1-0.16,0.15-0.28,0.15H167.29z M162.87,478.15
		c1.18,0,2.13-0.33,2.85-0.98c0.72-0.65,1.07-1.53,1.07-2.63c0-1.13-0.36-2.01-1.07-2.66c-0.72-0.65-1.67-0.98-2.85-0.98h-5.47
		c-0.15,0-0.23,0.08-0.23,0.23v6.79c0,0.15,0.08,0.23,0.23,0.23H162.87z"/>
	<path class="st1" d="M182.71,467.29c0.08-0.25,0.24-0.38,0.49-0.38h3.47c0.25,0,0.42,0.13,0.49,0.38l8.67,24.89
		c0.08,0.25-0.01,0.38-0.26,0.38h-3.7c-0.25,0-0.42-0.13-0.49-0.38l-1.7-4.98h-9.65l-1.7,4.98c-0.08,0.25-0.24,0.38-0.49,0.38h-3.66
		c-0.25,0-0.34-0.13-0.26-0.38L182.71,467.29z M188.33,483.24l-3.39-9.96h-0.11l-3.43,9.96H188.33z"/>
	<path class="st1" d="M197.42,489.85c-0.13-0.2-0.1-0.38,0.08-0.53l2.75-2.08c0.2-0.13,0.39-0.09,0.57,0.11
		c0.33,0.38,0.79,0.74,1.4,1.07c0.6,0.34,1.28,0.51,2.04,0.51c1.36,0,2.41-0.42,3.15-1.26c0.74-0.84,1.11-2.1,1.11-3.78v-16.6
		c0-0.25,0.13-0.38,0.38-0.38h3.7c0.25,0,0.38,0.13,0.38,0.38v16.63c0,2.92-0.8,5.15-2.39,6.71c-1.6,1.56-3.75,2.34-6.47,2.34
		c-1.46,0-2.79-0.3-4-0.91C198.89,491.45,198,490.71,197.42,489.85z"/>
	<path class="st1" d="M227.29,486.78c-0.13-0.4-0.23-0.8-0.32-1.21c-0.09-0.4-0.16-0.87-0.21-1.4c-0.05-0.53-0.09-1.15-0.11-1.87
		c-0.03-0.72-0.04-1.58-0.04-2.59c0-1.01,0.01-1.87,0.04-2.59c0.02-0.72,0.06-1.34,0.11-1.87c0.05-0.53,0.12-0.99,0.21-1.4
		c0.09-0.4,0.19-0.81,0.32-1.21c0.65-2.04,1.77-3.58,3.36-4.63c1.58-1.04,3.52-1.57,5.81-1.57c1.21,0,2.3,0.15,3.28,0.46
		s1.85,0.7,2.6,1.2c0.75,0.5,1.38,1.08,1.89,1.75c0.5,0.67,0.89,1.36,1.17,2.06c0.1,0.23,0.05,0.4-0.15,0.53l-3.17,1.4
		c-0.23,0.08-0.39,0.01-0.49-0.19c-0.58-1.03-1.27-1.82-2.07-2.36c-0.81-0.54-1.84-0.81-3.09-0.81c-1.31,0-2.35,0.3-3.13,0.88
		c-0.78,0.59-1.35,1.41-1.7,2.46c-0.08,0.23-0.15,0.49-0.21,0.79c-0.06,0.3-0.11,0.68-0.15,1.13c-0.04,0.45-0.06,1-0.08,1.64
		c-0.01,0.64-0.02,1.41-0.02,2.31c0,0.9,0.01,1.67,0.02,2.32c0.01,0.64,0.04,1.19,0.08,1.64c0.04,0.45,0.09,0.83,0.15,1.13
		c0.06,0.3,0.13,0.56,0.21,0.79c0.35,1.05,0.92,1.88,1.7,2.46c0.78,0.59,1.82,0.88,3.13,0.88c1.13,0,2.14-0.27,3.02-0.81
		c0.88-0.54,1.5-1.33,1.85-2.38c0.13-0.4,0.23-0.87,0.3-1.41c0.08-0.54,0.11-1.17,0.11-1.89c0-0.15-0.08-0.22-0.23-0.22h-4.22
		c-0.25,0-0.38-0.13-0.38-0.38v-3.02c0-0.25,0.13-0.38,0.38-0.38h8.49c0.25,0,0.38,0.13,0.38,0.38v2.22c0,1.06-0.05,2.09-0.15,3.11
		c-0.1,1.02-0.25,1.85-0.45,2.51c-0.63,2.01-1.74,3.56-3.34,4.66c-1.6,1.09-3.5,1.64-5.71,1.64c-2.29,0-4.22-0.52-5.81-1.57
		S227.94,488.82,227.29,486.78z"/>
	<path class="st1" d="M265.57,492.56c-0.28,0-0.47-0.13-0.57-0.38l-4.9-9.99h-4.41c-0.15,0-0.23,0.08-0.23,0.23v9.77
		c0,0.25-0.13,0.38-0.38,0.38h-3.7c-0.25,0-0.38-0.13-0.38-0.38v-24.93c0-0.25,0.13-0.38,0.38-0.38h9.92c1.18,0,2.27,0.19,3.26,0.57
		c0.99,0.38,1.85,0.9,2.58,1.57c0.73,0.67,1.3,1.47,1.72,2.42c0.42,0.94,0.62,1.98,0.62,3.12c0,1.69-0.44,3.15-1.32,4.38
		c-0.88,1.23-2.06,2.13-3.54,2.68l5.39,10.46c0.08,0.13,0.08,0.24,0.02,0.34c-0.06,0.1-0.16,0.15-0.28,0.15H265.57z M261.15,478.15
		c1.18,0,2.13-0.33,2.85-0.98c0.72-0.65,1.07-1.53,1.07-2.63c0-1.13-0.36-2.01-1.07-2.66c-0.72-0.65-1.67-0.98-2.85-0.98h-5.47
		c-0.15,0-0.23,0.08-0.23,0.23v6.79c0,0.15,0.08,0.23,0.23,0.23H261.15z"/>
	<path class="st1" d="M283.33,492.97c-2.21,0-4.11-0.52-5.69-1.57s-2.7-2.59-3.36-4.63c-0.13-0.4-0.23-0.8-0.32-1.21
		c-0.09-0.4-0.16-0.87-0.21-1.4c-0.05-0.53-0.09-1.15-0.11-1.87c-0.03-0.72-0.04-1.58-0.04-2.59c0-1.01,0.01-1.87,0.04-2.59
		c0.02-0.72,0.06-1.34,0.11-1.87c0.05-0.53,0.12-0.99,0.21-1.4c0.09-0.4,0.19-0.81,0.32-1.21c0.65-2.04,1.77-3.58,3.36-4.63
		c1.58-1.04,3.48-1.57,5.69-1.57c2.24,0,4.15,0.52,5.73,1.57c1.58,1.05,2.7,2.59,3.36,4.63c0.13,0.4,0.23,0.8,0.32,1.21
		c0.09,0.4,0.16,0.87,0.21,1.4c0.05,0.53,0.09,1.15,0.11,1.87c0.02,0.72,0.04,1.58,0.04,2.59c0,1.01-0.01,1.87-0.04,2.59
		c-0.03,0.72-0.06,1.34-0.11,1.87c-0.05,0.53-0.12,1-0.21,1.4c-0.09,0.4-0.2,0.81-0.32,1.21c-0.65,2.04-1.77,3.58-3.36,4.63
		S285.57,492.97,283.33,492.97z M283.33,488.94c1.28,0,2.31-0.29,3.09-0.88c0.78-0.59,1.34-1.41,1.7-2.46
		c0.08-0.23,0.14-0.49,0.19-0.79c0.05-0.3,0.09-0.68,0.13-1.13c0.04-0.45,0.07-1,0.09-1.64c0.02-0.64,0.04-1.41,0.04-2.32
		c0-0.9-0.01-1.67-0.04-2.31c-0.03-0.64-0.06-1.19-0.09-1.64c-0.04-0.45-0.08-0.83-0.13-1.13c-0.05-0.3-0.11-0.56-0.19-0.79
		c-0.35-1.05-0.92-1.88-1.7-2.46c-0.78-0.59-1.81-0.88-3.09-0.88s-2.31,0.3-3.07,0.88c-0.77,0.59-1.33,1.41-1.68,2.46
		c-0.08,0.23-0.15,0.49-0.21,0.79c-0.06,0.3-0.11,0.68-0.15,1.13c-0.04,0.45-0.06,1-0.08,1.64c-0.01,0.64-0.02,1.41-0.02,2.31
		c0,0.9,0.01,1.67,0.02,2.32c0.01,0.64,0.04,1.19,0.08,1.64c0.04,0.45,0.09,0.83,0.15,1.13c0.06,0.3,0.13,0.56,0.21,0.79
		c0.35,1.05,0.91,1.88,1.68,2.46C281.02,488.64,282.05,488.94,283.33,488.94z"/>
	<path class="st1" d="M307.28,488.94c1.48,0,2.69-0.47,3.62-1.41c0.93-0.94,1.4-2.3,1.4-4.08v-16.15c0-0.25,0.13-0.38,0.38-0.38h3.7
		c0.25,0,0.38,0.13,0.38,0.38v16.25c0,1.48-0.24,2.81-0.72,3.98c-0.48,1.17-1.14,2.16-1.98,2.96c-0.84,0.8-1.84,1.42-3,1.85
		c-1.16,0.43-2.41,0.64-3.77,0.64c-1.36,0-2.61-0.21-3.75-0.64c-1.14-0.43-2.14-1.04-2.98-1.85c-0.84-0.8-1.5-1.79-1.98-2.96
		c-0.48-1.17-0.72-2.49-0.72-3.98v-16.25c0-0.25,0.13-0.38,0.38-0.38h3.7c0.25,0,0.38,0.12,0.38,0.38v16.15
		c0,1.78,0.46,3.14,1.4,4.08S305.82,488.94,307.28,488.94z"/>
	<path class="st1" d="M322.62,492.56c-0.25,0-0.38-0.13-0.38-0.38v-24.93c0-0.25,0.13-0.38,0.38-0.38h9.62
		c1.23,0,2.37,0.2,3.41,0.59c1.04,0.39,1.94,0.93,2.68,1.63c0.74,0.69,1.32,1.53,1.73,2.51c0.42,0.98,0.62,2.07,0.62,3.25
		c0,1.21-0.21,2.31-0.62,3.29c-0.42,0.98-0.99,1.82-1.73,2.51c-0.74,0.69-1.63,1.24-2.68,1.63c-1.04,0.39-2.18,0.59-3.41,0.59h-5.32
		c-0.15,0-0.23,0.08-0.23,0.23v9.09c0,0.25-0.13,0.38-0.38,0.38H322.62z M331.98,478.83c1.33,0,2.38-0.36,3.13-1.08
		c0.75-0.72,1.13-1.68,1.13-2.88c0-1.18-0.38-2.14-1.13-2.87c-0.75-0.73-1.8-1.09-3.13-1.09h-5.05c-0.15,0-0.23,0.08-0.23,0.23v7.47
		c0,0.15,0.08,0.23,0.23,0.23H331.98z"/>
</g>
</svg>
