<?xml version="1.0" encoding="utf-8"?>
<!-- Generator: Adobe Illustrator 25.0.1, SVG Export Plug-In . SVG Version: 6.00 Build 0)  -->
<svg version="1.1" id="Layer_1" xmlns="http://www.w3.org/2000/svg" xmlns:xlink="http://www.w3.org/1999/xlink" x="0px" y="0px"
	 viewBox="0 0 368.2 518.37" style="enable-background:new 0 0 368.2 518.37;" xml:space="preserve">
<style type="text/css">
	.st0{fill:#F39400;}
	.st1{fill:#AD1917;}
</style>
<path class="st0" d="M81.94,335.94c7.18,31.98,21.57,59.87,42.89,83.94c-32.22-17.45-52.75-44.96-64.01-80.83
	c-13.23-42.13-3.74-89.71,8.6-108.83c1.53,19.17,3.65,37.86,8.63,55.99c11.9,43.44,36.42,77.8,69.81,105.51
	c13.47,11.18,29.45,14.4,46.7,14.83c-3.49-10.99-9.42-19.77-16.51-27.79c-11.35-12.83-24.92-22.78-39.74-30.28
	c-29.47-14.94-42.51-41.03-47.22-73.23c-2.49-17.01-2.93-34.2-3.29-51.41c4.98,20.99,11.41,41.36,21.11,60.46
	c12.96,25.53,30.7,45.84,56.16,58.31c15.1,7.39,29.26,16.64,40.94,29.48c7.65,8.4,12.63,18.18,14.3,29.78
	c0.3,2.09-0.72,5.69,3.4,4.75c3.34-0.76,7.75,0.38,8.22-5.58c1.36-17.37-3.6-31.59-17.8-41.56c-11.92-8.37-25.17-14.03-37.88-20.8
	c-26.65-14.18-46.9-34.62-57.82-64.34c-0.63-1.72-1.13-3.5-1.6-5.27c-0.14-0.55,0.02-1.18,0.07-2.29
	c6.49,7.58,12.74,14.81,18.91,22.08c15.39,18.13,34.81,28.18,57.46,31.68c5.66,0.87,12.04,1.62,15.24-4.61
	c3.31-6.45-1.3-11.21-5.27-15.57c-8.7-9.58-19.83-14.46-31.75-17.53c-42.11-10.83-65.13-40.99-74.91-83.41
	c-5.14-22.33,0.74-43.14,14.29-63.15c0,4.06,0.08,6.73-0.01,9.41c-0.67,19.09,1.18,37.72,7.89,55.71
	c8.74,23.42,26.38,37.24,46.63,48.1c9.37,5.03,19.19,9.15,28.86,13.59c13.76,6.31,26.33,14.46,36.92,25.77c0.8,0.85,1.45,2,3.13,2
	c2.66-5.93,1.95-11.76-0.74-17.54c-4.06-8.76-10.69-15.17-17.75-21.09c-10.75-9.01-22.7-16.03-34.91-22.59
	c-35.32-18.95-53.04-52.16-50.43-93.74c0.76-11.97,2.33-23.69,6.22-35.01c0.45-1.29,0.52-2.79,2.31-3.78
	c-0.02,12.35,1.57,24.19,4.46,35.87c6.25,25.21,19.4,45,40.62,58.84c12.81,8.35,26.17,15.63,39.28,23.4
	c27.38,16.22,47.41,38.7,55.79,71.31c0.2,0.79,0.46,1.61,1.92,1.61c4.86-24.72-2.46-45.53-18.42-63.58
	c-9.01-10.18-20.33-17.37-30.8-25.64c-20.56-16.25-40.57-33.11-55.68-55.35c-13.16-19.36-20.83-40.44-17-64.76
	c2.96-18.82,11.76-34.66,22.98-49.23c1.58-2.05,3.27-4.03,5.13-6.34c1.8,2.37,1.06,4.69,1.08,6.76c0.31,24.98,2.36,49.76,9.95,73.59
	c9.3,29.24,26.85,52.74,48.18,73.32c13.28,12.8,26.94,25.16,40.12,38.07c10.98,10.74,20.39,22.84,25.16,38.14
	c8.94,28.66-0.07,59.44-23.38,80.59c-10.15,9.22-21.36,16.62-33.64,22.23c-2.67,1.23-4.42,2.45-4.31,6.2
	c0.34,11.73-1.02,23.36-2.14,35.44c38.61-24.59,72.37-53.26,79.55-104.23c4.48,39.67-8.07,82.42-44.14,111.99
	c-12.74,10.44-26.57,18.85-41.71,24.74c-3.69,1.43-6.17,3.56-8.07,7.31c-5.18,10.2-12.16,18.92-21.7,25.5
	c3.51-8.29,7.01-16.57,10.66-25.19c-4.51-0.67-7,0.62-8.9,4.63c-3.74,7.82-7.99,15.39-14.84,21.08c0-7.33-0.12-14.2,0.06-21.05
	c0.07-2.93-0.53-4.41-3.61-4.99c-32.93-6.2-58.67-24.67-79.72-51.43C103.44,370.08,91.2,354.15,81.94,335.94z"/>
<path class="st1" d="M153.2,367.57c4.82-0.1,8.55,3.59,8.71,8.59c0.17,5.22-3.64,9.39-8.57,9.38c-4.77-0.01-8.49-3.92-8.51-8.92
	C144.81,371.52,148.39,367.65,153.2,367.57z"/>
</svg>
